<?xml version="1.0" encoding="UTF-8" standalone="no"?>
<!DOCTYPE svg PUBLIC "-//W3C//DTD SVG 1.1//EN" "http://www.w3.org/Graphics/SVG/1.1/DTD/svg11.dtd">
<!-- Created with Vectornator (http://vectornator.io/) -->
<svg height="100%" stroke-miterlimit="10" style="fill-rule:nonzero;clip-rule:evenodd;stroke-linecap:round;stroke-linejoin:round;" version="1.1" viewBox="0 0 46.05 45.95" width="100%" xml:space="preserve" xmlns="http://www.w3.org/2000/svg" xmlns:vectornator="http://vectornator.io" xmlns:xlink="http://www.w3.org/1999/xlink">
<defs/>
<g id="Untitled" vectornator:layerName="Untitled">
<path d="M6 41C5.16667 41 4.45833 40.7083 3.875 40.125C3.29167 39.5417 3 38.8333 3 38L3 8C3 7.16667 3.29167 6.45833 3.875 5.875C4.45833 5.29167 5.16667 5 6 5L16.25 5C16.4167 3.83333 16.95 2.875 17.85 2.125C18.75 1.375 19.8 1 21 1C22.2 1 23.25 1.375 24.15 2.125C25.05 2.875 25.5833 3.83333 25.75 5L36 5C36.8333 5 37.5417 5.29167 38.125 5.875C38.7083 6.45833 39 7.16667 39 8L39 24.45C38.5333 24.1833 38.0417 23.9667 37.525 23.8C37.0083 23.6333 36.5 23.5 36 23.4L36 8L6 8L6 38L21.45 38C21.5833 38.5333 21.7333 39.05 21.9 39.55C22.0667 40.05 22.2667 40.5333 22.5 41L6 41ZM6 35.65L6 38L6 8L6 23.4L6 23.2C6 23.2 6 35.65 6 35.65ZM11 33L21.55 33C21.6833 32.4667 21.8333 31.95 22 31.45C22.1667 30.95 22.3833 30.4667 22.65 30L11 30L11 33ZM11 24.5L28.2 24.5C28.6667 24.2667 29.1167 24.075 29.55 23.925C29.9833 23.775 30.4667 23.6333 31 23.5L31 21.5L11 21.5L11 24.5ZM11 16L31 16L31 13L11 13L11 16ZM21 7.15C21.4667 7.15 21.875 6.975 22.225 6.625C22.575 6.275 22.75 5.86667 22.75 5.4C22.75 4.93333 22.575 4.525 22.225 4.175C21.875 3.825 21.4667 3.65 21 3.65C20.5333 3.65 20.125 3.825 19.775 4.175C19.425 4.525 19.25 4.93333 19.25 5.4C19.25 5.86667 19.425 6.275 19.775 6.625C20.125 6.975 20.5333 7.15 21 7.15ZM33.65 44.95C31.05 44.95 28.8333 44.025 27 42.175C25.1667 40.325 24.25 38.1333 24.25 35.6C24.25 33 25.1667 30.775 27 28.925C28.8333 27.075 31.05 26.15 33.65 26.15C36.2167 26.15 38.425 27.075 40.275 28.925C42.125 30.775 43.05 33 43.05 35.6C43.05 38.1333 42.125 40.325 40.275 42.175C38.425 44.025 36.2167 44.95 33.65 44.95ZM32.9 41.95L34.55 41.95L34.55 36.45L40.05 36.45L40.05 34.8L34.55 34.8L34.55 29.3L32.9 29.3L32.9 34.8L27.4 34.8L27.4 36.45L32.9 36.45L32.9 41.95Z" fill="#ffbb55" fill-rule="nonzero" opacity="1" stroke="none"/>
</g>
</svg>
