<?xml version="1.0" encoding="UTF-8" standalone="no"?>
<!DOCTYPE svg PUBLIC "-//W3C//DTD SVG 1.1//EN" "http://www.w3.org/Graphics/SVG/1.1/DTD/svg11.dtd">
<!-- Created with Vectornator (http://vectornator.io/) -->
<svg height="100%" stroke-miterlimit="10" style="fill-rule:nonzero;clip-rule:evenodd;stroke-linecap:round;stroke-linejoin:round;" version="1.1" viewBox="0 0 42.05 42" width="100%" xml:space="preserve" xmlns="http://www.w3.org/2000/svg" xmlns:vectornator="http://vectornator.io" xmlns:xlink="http://www.w3.org/1999/xlink">
<defs/>
<g id="Untitled" vectornator:layerName="Untitled">
<path d="M35.9 39.025L23.35 26.475L26.2 23.625L38.75 36.175L35.9 39.025ZM6.85 39.025L4 36.175L18.5 21.675L13.15 16.325L12 17.475L9.8 15.275L9.8 19.525L8.6 20.725L2.5 14.625L3.7 13.425L8 13.425L5.6 11.025L12.15 4.475C12.7167 3.90833 13.3333 3.525 14 3.325C14.6667 3.125 15.4 3.025 16.2 3.025C17 3.025 17.7333 3.16667 18.4 3.45C19.0667 3.73333 19.6833 4.15833 20.25 4.725L14.9 10.075L17.3 12.475L16.1 13.675L21.3 18.875L27.4 12.775C27.1333 12.3417 26.925 11.8417 26.775 11.275C26.625 10.7083 26.55 10.1083 26.55 9.475C26.55 7.70833 27.1917 6.18333 28.475 4.9C29.7583 3.61667 31.2833 2.975 33.05 2.975C33.55 2.975 33.975 3.025 34.325 3.125C34.675 3.225 34.9667 3.35833 35.2 3.525L30.95 7.775L34.7 11.525L38.95 7.275C39.1167 7.54167 39.2583 7.86667 39.375 8.25C39.4917 8.63333 39.55 9.075 39.55 9.575C39.55 11.3417 38.9083 12.8667 37.625 14.15C36.3417 15.4333 34.8167 16.075 33.05 16.075C32.45 16.075 31.9333 16.0333 31.5 15.95C31.0667 15.8667 30.6667 15.7417 30.3 15.575L6.85 39.025Z" fill="#ffbb55" fill-rule="nonzero" opacity="1" stroke="none"/>
</g>
</svg>
