<?xml version="1.0" encoding="UTF-8" standalone="no"?>
<!DOCTYPE svg PUBLIC "-//W3C//DTD SVG 1.1//EN" "http://www.w3.org/Graphics/SVG/1.1/DTD/svg11.dtd">

<!-- Created with Vectornator (http://vectornator.io/) -->
<svg height="100%" stroke-miterlimit="10" style="fill-rule:nonzero;clip-rule:evenodd;stroke-linecap:round;stroke-linejoin:round;" version="1.1" viewBox="0 0 46 46" width="100%" xml:space="preserve" xmlns="http://www.w3.org/2000/svg" xmlns:vectornator="http://vectornator.io" xmlns:xlink="http://www.w3.org/1999/xlink">
<metadata>
<vectornator:setting key="IsTimeLapseWatermarkDisabled" value="false"/>
<vectornator:setting key="UndoHistoryDisabled" value="true"/>
<vectornator:setting key="VNDimensionsVisible" value="true"/>
<vectornator:setting key="VNSnapToGuides" value="true"/>
<vectornator:setting key="WDCMYKEnabledKey" value="false"/>
<vectornator:setting key="WDDisplayWhiteBackground" value="false"/>
<vectornator:setting key="WDDynamicGuides" value="false"/>
<vectornator:setting key="WDGuidesVisible" value="true"/>
<vectornator:setting key="WDIsolateActiveLayer" value="false"/>
<vectornator:setting key="WDOutlineMode" value="false"/>
<vectornator:setting key="WDRulersVisible" value="true"/>
<vectornator:setting key="WDSnapToEdges" value="false"/>
<vectornator:setting key="WDSnapToGrid" value="false"/>
<vectornator:setting key="WDSnapToPoints" value="false"/>
<vectornator:setting key="WDUnits" value="Points"/>
</metadata>
<defs/>
<g id="Untitled" vectornator:layerName="Untitled">
<path d="M9 41.3C8.16667 41.3 7.45833 41.0083 6.875 40.425C6.29167 39.8417 6 39.1333 6 38.3L6 9.2C6 8.36667 6.25833 7.65833 6.775 7.075C7.29167 6.49167 7.73333 6.2 8.1 6.2L18.2 6.2C18.4333 5.03333 19.0083 4.075 19.925 3.325C20.8417 2.575 21.9 2.2 23.1 2.2C24.3 2.2 25.3583 2.575 26.275 3.325C27.1917 4.075 27.7667 5.03333 28 6.2L38.1 6.2C38.9333 6.2 39.6417 6.49167 40.225 7.075C40.8083 7.65833 41.1 8.36667 41.1 9.2L41.1 21.5L38.1 21.5L38.1 9.2L32.8 9.2L32.8 15.7L14.3 15.7L14.3 9.2L9 9.2L9 38.3L21.5 38.3L21.5 41.3L9 41.3ZM43.9 46L37.9 40C37.2 40.5667 36.425 40.9583 35.575 41.175C34.725 41.3917 33.8667 41.5 33 41.5C30.6333 41.5 28.625 40.675 26.975 39.025C25.325 37.375 24.5 35.3667 24.5 33C24.5 30.6333 25.325 28.625 26.975 26.975C28.625 25.325 30.6333 24.5 33 24.5C35.3667 24.5 37.375 25.325 39.025 26.975C40.675 28.625 41.5 30.6333 41.5 33C41.5 33.8667 41.3917 34.7333 41.175 35.6C40.9583 36.4667 40.5667 37.2333 40 37.9L46 43.9L43.9 46ZM33 38.5C34.5333 38.5 35.8333 37.9667 36.9 36.9C37.9667 35.8333 38.5 34.5333 38.5 33C38.5 31.4667 37.9667 30.1667 36.9 29.1C35.8333 28.0333 34.5333 27.5 33 27.5C31.4667 27.5 30.1667 28.0333 29.1 29.1C28.0333 30.1667 27.5 31.4667 27.5 33C27.5 34.5333 28.0333 35.8333 29.1 36.9C30.1667 37.9667 31.4667 38.5 33 38.5ZM24 9C24.5667 9 25.0417 8.80833 25.425 8.425C25.8083 8.04167 26 7.56667 26 7C26 6.43333 25.8083 5.95833 25.425 5.575C25.0417 5.19167 24.5667 5 24 5C23.4333 5 22.9583 5.19167 22.575 5.575C22.1917 5.95833 22 6.43333 22 7C22 7.56667 22.1917 8.04167 22.575 8.425C22.9583 8.80833 23.4333 9 24 9Z" fill="#ffffff" fill-rule="evenodd" opacity="1" stroke="none"/>
</g>
</svg>
