<?xml version="1.0" encoding="UTF-8" standalone="no"?>
<!DOCTYPE svg PUBLIC "-//W3C//DTD SVG 1.1//EN" "http://www.w3.org/Graphics/SVG/1.1/DTD/svg11.dtd">

<!-- Created with Vectornator (http://vectornator.io/) -->
<svg height="100%" stroke-miterlimit="10" style="fill-rule:nonzero;clip-rule:evenodd;stroke-linecap:round;stroke-linejoin:round;" version="1.1" viewBox="0 0 46.3 46" width="100%" xml:space="preserve" xmlns="http://www.w3.org/2000/svg" xmlns:vectornator="http://vectornator.io" xmlns:xlink="http://www.w3.org/1999/xlink">
<metadata>
<vectornator:setting key="IsTimeLapseWatermarkDisabled" value="false"/>
<vectornator:setting key="UndoHistoryDisabled" value="true"/>
<vectornator:setting key="VNDimensionsVisible" value="true"/>
<vectornator:setting key="VNSnapToGuides" value="true"/>
<vectornator:setting key="WDCMYKEnabledKey" value="false"/>
<vectornator:setting key="WDDisplayWhiteBackground" value="false"/>
<vectornator:setting key="WDDynamicGuides" value="false"/>
<vectornator:setting key="WDGuidesVisible" value="true"/>
<vectornator:setting key="WDIsolateActiveLayer" value="false"/>
<vectornator:setting key="WDOutlineMode" value="false"/>
<vectornator:setting key="WDRulersVisible" value="true"/>
<vectornator:setting key="WDSnapToEdges" value="false"/>
<vectornator:setting key="WDSnapToGrid" value="false"/>
<vectornator:setting key="WDSnapToPoints" value="false"/>
<vectornator:setting key="WDUnits" value="Points"/>
</metadata>
<defs/>
<g id="Untitled" vectornator:layerName="Untitled">
<path d="M6 42C5.2 42 4.5 41.7 3.9 41.1C3.3 40.5 3 39.8 3 39L3 8C3 7.2 3.3 6.5 3.9 5.9C4.5 5.3 5.2 5 6 5L9.25 5L9.25 2L12.5 2L12.5 5L29.5 5L29.5 2L32.75 2L32.75 5L36 5C36.8 5 37.5 5.3 38.1 5.9C38.7 6.5 39 7.2 39 8L39 23.05L36 23.05L36 17.5L6 17.5L6 39L21.95 39L21.95 42L6 42ZM41.45 31.05L37.9 27.5L39.35 26.05C39.6167 25.7833 39.9667 25.65 40.4 25.65C40.8333 25.65 41.1833 25.7833 41.45 26.05L42.9 27.5C43.1667 27.7667 43.3 28.1167 43.3 28.55C43.3 28.9833 43.1667 29.3333 42.9 29.6L41.45 31.05ZM24.95 44L24.95 40.45L35.75 29.65L39.3 33.2L28.5 44L24.95 44Z" fill="#ffffff" fill-rule="evenodd" opacity="1" stroke="none"/>
</g>
</svg>
