<?xml version="1.0" encoding="UTF-8" standalone="no"?>
<!DOCTYPE svg PUBLIC "-//W3C//DTD SVG 1.1//EN" "http://www.w3.org/Graphics/SVG/1.1/DTD/svg11.dtd">
<!-- Created with Vectornator (http://vectornator.io/) -->
<svg height="100%" stroke-miterlimit="10" style="fill-rule:nonzero;clip-rule:evenodd;stroke-linecap:round;stroke-linejoin:round;" version="1.1" viewBox="0 0 46 40" width="100%" xml:space="preserve" xmlns="http://www.w3.org/2000/svg" xmlns:vectornator="http://vectornator.io" xmlns:xlink="http://www.w3.org/1999/xlink">
<defs/>
<g id="Untitled" vectornator:layerName="Untitled">
<path d="M27 15.3L27 12.9C28.1 12.4333 29.225 12.0833 30.375 11.85C31.525 11.6167 32.7333 11.5 34 11.5C34.8667 11.5 35.7167 11.5667 36.55 11.7C37.3833 11.8333 38.2 12 39 12.2L39 14.4C38.2 14.1 37.3917 13.875 36.575 13.725C35.7583 13.575 34.9 13.5 34 13.5C32.7333 13.5 31.5167 13.6583 30.35 13.975C29.1833 14.2917 28.0667 14.7333 27 15.3ZM27 26.3L27 23.85C28.1 23.3833 29.225 23.0417 30.375 22.825C31.525 22.6083 32.7333 22.5 34 22.5C34.8667 22.5 35.7167 22.5667 36.55 22.7C37.3833 22.8333 38.2 23 39 23.2L39 25.4C38.2 25.1 37.3917 24.875 36.575 24.725C35.7583 24.575 34.9 24.5 34 24.5C32.7333 24.5 31.5167 24.65 30.35 24.95C29.1833 25.25 28.0667 25.7 27 26.3ZM27 20.8L27 18.4C28.1 17.9333 29.225 17.5833 30.375 17.35C31.525 17.1167 32.7333 17 34 17C34.8667 17 35.7167 17.0667 36.55 17.2C37.3833 17.3333 38.2 17.5 39 17.7L39 19.9C38.2 19.6 37.3917 19.375 36.575 19.225C35.7583 19.075 34.9 19 34 19C32.7333 19 31.5167 19.1583 30.35 19.475C29.1833 19.7917 28.0667 20.2333 27 20.8ZM11.4 29C13.2 29 14.9417 29.2083 16.625 29.625C18.3083 30.0417 19.9667 30.6667 21.6 31.5L21.6 10.15C20.1 9.15 18.475 8.375 16.725 7.825C14.975 7.275 13.2 7 11.4 7C10.1333 7 8.89167 7.15833 7.675 7.475C6.45833 7.79167 5.23333 8.18333 4 8.65L4 30.35C5.03333 29.8833 6.20833 29.5417 7.525 29.325C8.84167 29.1083 10.1333 29 11.4 29ZM24.6 31.5C26.2667 30.6667 27.9 30.0417 29.5 29.625C31.1 29.2083 32.8 29 34.6 29C35.8667 29 37.175 29.1 38.525 29.3C39.875 29.5 41.0333 29.7667 42 30.1L42 8.65C40.8667 8.08333 39.6667 7.66667 38.4 7.4C37.1333 7.13333 35.8667 7 34.6 7C32.8 7 31.0583 7.275 29.375 7.825C27.6917 8.375 26.1 9.15 24.6 10.15L24.6 31.5ZM23.1 36C21.4 34.7333 19.55 33.7583 17.55 33.075C15.55 32.3917 13.5 32.05 11.4 32.05C10.1667 32.05 8.96667 32.2 7.8 32.5C6.63333 32.8 5.46667 33.1667 4.3 33.6C3.53333 33.9667 2.79167 33.9167 2.075 33.45C1.35833 32.9833 1 32.3167 1 31.45L1 8.3C1 7.8 1.11667 7.34167 1.35 6.925C1.58333 6.50833 1.93333 6.18333 2.4 5.95C3.8 5.28333 5.25833 4.79167 6.775 4.475C8.29167 4.15833 9.83333 4 11.4 4C13.5 4 15.5417 4.28333 17.525 4.85C19.5083 5.41667 21.3667 6.28333 23.1 7.45C24.8 6.28333 26.625 5.41667 28.575 4.85C30.525 4.28333 32.5333 4 34.6 4C36.1667 4 37.7 4.15833 39.2 4.475C40.7 4.79167 42.15 5.28333 43.55 5.95C44.0167 6.18333 44.375 6.50833 44.625 6.925C44.875 7.34167 45 7.8 45 8.3L45 31.45C45 32.3833 44.625 33.0917 43.875 33.575C43.125 34.0583 42.3833 34.0667 41.65 33.6C40.5167 33.1333 39.3667 32.7583 38.2 32.475C37.0333 32.1917 35.8333 32.05 34.6 32.05C32.5 32.05 30.4833 32.4 28.55 33.1C26.6167 33.8 24.8 34.7667 23.1 36Z" fill="#ffbb55" fill-rule="nonzero" opacity="1" stroke="none"/>
</g>
</svg>
