<svg id="Layer_1" data-name="Layer 1" xmlns="http://www.w3.org/2000/svg" viewBox="0 0 48 48"><defs><style>.cls-1{fill:#fb5;}</style></defs><path class="cls-1" d="M24,24a7.19,7.19,0,0,1-7.5-7.5A7.19,7.19,0,0,1,24,9a7.19,7.19,0,0,1,7.5,7.5A7.19,7.19,0,0,1,24,24ZM8,40V35.3A5.52,5.52,0,0,1,9,32.05a6.1,6.1,0,0,1,2.45-2,37.53,37.53,0,0,1,6.43-2.25A25.91,25.91,0,0,1,24,27a25.15,25.15,0,0,1,6.15.77A42.64,42.64,0,0,1,36.55,30a6.05,6.05,0,0,1,2.5,2,5.52,5.52,0,0,1,1,3.25V40Zm3-3H37V35.3a2.83,2.83,0,0,0-.47-1.53,3,3,0,0,0-1.18-1.07,27,27,0,0,0-5.85-2.13,26.83,26.83,0,0,0-11,0A25.36,25.36,0,0,0,12.6,32.7a2.77,2.77,0,0,0-1.15,1.08A2.83,2.83,0,0,0,11,35.3ZM24,21a4.38,4.38,0,0,0,3.23-1.27,4.43,4.43,0,0,0,1.27-3.23,4.5,4.5,0,1,0-9,0A4.35,4.35,0,0,0,24,21Z"/></svg>