<?xml version="1.0" encoding="UTF-8" standalone="no"?>
<!DOCTYPE svg PUBLIC "-//W3C//DTD SVG 1.1//EN" "http://www.w3.org/Graphics/SVG/1.1/DTD/svg11.dtd">
<!-- Created with Vectornator (http://vectornator.io/) -->
<svg height="100%" stroke-miterlimit="10" style="fill-rule:nonzero;clip-rule:evenodd;stroke-linecap:round;stroke-linejoin:round;" version="1.1" viewBox="0 0 42 41.95" width="100%" xml:space="preserve" xmlns="http://www.w3.org/2000/svg" xmlns:vectornator="http://vectornator.io" xmlns:xlink="http://www.w3.org/1999/xlink">
<defs/>
<g id="Untitled" vectornator:layerName="Untitled">
<path d="M36.8 38.975L23.65 25.825C22.65 26.6917 21.4833 27.3667 20.15 27.85C18.8167 28.3333 17.4 28.575 15.9 28.575C12.3 28.575 9.25 27.325 6.75 24.825C4.25 22.325 3 19.3083 3 15.775C3 12.2417 4.25 9.225 6.75 6.725C9.25 4.225 12.2833 2.975 15.85 2.975C19.3833 2.975 22.3917 4.225 24.875 6.725C27.3583 9.225 28.6 12.2417 28.6 15.775C28.6 17.2083 28.3667 18.5917 27.9 19.925C27.4333 21.2583 26.7333 22.5083 25.8 23.675L39 36.775L36.8 38.975ZM15.85 25.575C18.55 25.575 20.85 24.6167 22.75 22.7C24.65 20.7833 25.6 18.475 25.6 15.775C25.6 13.075 24.65 10.7667 22.75 8.85C20.85 6.93333 18.55 5.975 15.85 5.975C13.1167 5.975 10.7917 6.93333 8.875 8.85C6.95833 10.7667 6 13.075 6 15.775C6 18.475 6.95833 20.7833 8.875 22.7C10.7917 24.6167 13.1167 25.575 15.85 25.575Z" fill="#ffbb55" fill-rule="nonzero" opacity="1" stroke="none"/>
</g>
</svg>
